<?xml version="1.0" standalone="no"?>
<!DOCTYPE svg PUBLIC "-//W3C//DTD SVG 20010904//EN"
 "http://www.w3.org/TR/2001/REC-SVG-20010904/DTD/svg10.dtd">
<svg version="1.0" xmlns="http://www.w3.org/2000/svg"
 width="976.000000pt" height="976.000000pt" viewBox="0 0 976.000000 976.000000"
 preserveAspectRatio="xMidYMid meet">
<metadata>
Created by potrace 1.11, written by Peter Selinger 2001-2013
</metadata>
<g transform="translate(0.000000,976.000000) scale(0.100000,-0.100000)"
fill="#000000" stroke="none">
<path d="M6230 9750 c-15 -9 -47 -21 -65 -26 -5 -1 -46 -16 -90 -34 -44 -17
-84 -33 -90 -34 -5 -2 -17 -6 -25 -9 -8 -3 -67 -24 -130 -47 -63 -22 -124 -45
-135 -49 -11 -5 -47 -19 -80 -31 -33 -12 -73 -27 -90 -33 -16 -7 -32 -12 -35
-13 -3 0 -18 -6 -33 -12 -16 -7 -30 -12 -32 -12 -2 0 -16 -5 -32 -12 -15 -6
-32 -12 -38 -13 -5 -2 -41 -15 -80 -30 -38 -14 -90 -33 -115 -42 -25 -8 -58
-21 -75 -28 -16 -7 -66 -25 -110 -41 -44 -15 -84 -31 -90 -36 -5 -4 -19 -8
-30 -8 -12 0 -25 -3 -29 -7 -4 -5 -11 -8 -14 -9 -8 -1 -38 -12 -67 -24 -11 -5
-114 -43 -230 -85 -115 -42 -217 -79 -225 -82 -8 -4 -17 -7 -20 -7 -3 -1 -9
-4 -15 -7 -5 -4 -35 -14 -65 -24 -30 -10 -59 -20 -65 -24 -5 -3 -14 -6 -20 -8
-17 -3 -129 -45 -140 -51 -5 -4 -14 -7 -20 -8 -5 -2 -59 -21 -120 -44 -60 -22
-114 -42 -120 -44 -10 -3 -25 -8 -60 -22 -11 -4 -22 -8 -25 -9 -3 -1 -18 -7
-33 -13 -16 -7 -33 -12 -38 -12 -5 0 -17 -4 -27 -9 -49 -26 -458 -168 -507
-176 -27 -5 -300 -99 -350 -121 -22 -10 -43 -17 -47 -16 -5 1 -8 -2 -8 -7 0
-5 -10 -11 -23 -15 -39 -9 -104 -73 -109 -105 -3 -18 0 -28 5 -24 6 4 7 1 2
-7 -4 -7 -8 -79 -7 -160 l0 -148 -44 -16 c-85 -31 -167 -58 -172 -57 -1 1 -19
-6 -40 -15 -20 -8 -44 -17 -52 -19 -8 -2 -118 -39 -245 -82 -126 -44 -232 -80
-235 -81 -3 0 -12 -3 -20 -6 -54 -20 -258 -89 -270 -91 -8 -2 -40 -12 -70 -23
-30 -11 -57 -20 -60 -20 -3 0 -12 -3 -20 -6 -16 -5 -197 -56 -215 -61 -5 -1
-17 -4 -25 -7 -8 -3 -55 -18 -103 -33 -98 -31 -213 -83 -246 -111 l-21 -18 0
-3368 c0 -2987 2 -3368 15 -3368 8 0 15 -9 15 -20 0 -15 7 -20 28 -21 15 -1
41 -2 57 -4 17 -2 82 -6 145 -10 144 -8 253 -15 305 -19 86 -8 171 -17 195
-21 14 -2 54 -6 90 -10 60 -5 98 -11 110 -15 13 -5 56 3 68 12 6 6 12 7 12 3
0 -4 6 -3 13 2 22 19 117 47 116 35 -7 -49 -5 -50 141 -84 30 -6 57 -13 60
-13 3 -1 28 -5 55 -10 28 -4 59 -10 70 -12 11 -2 34 -6 50 -9 17 -3 39 -7 50
-9 11 -2 31 -7 45 -12 38 -14 37 -15 141 54 40 26 64 30 56 8 -4 -8 -2 -17 3
-20 6 -3 6 -15 0 -30 -17 -45 17 -55 265 -79 33 -3 76 -8 95 -11 19 -3 62 -7
95 -10 59 -4 119 -10 220 -20 28 -2 84 -7 125 -10 41 -3 95 -8 120 -11 87 -9
155 -15 215 -19 80 -6 171 -14 220 -21 79 -11 100 -10 120 6 11 9 26 15 33 14
6 -1 18 -2 26 -3 8 0 16 -11 18 -23 4 -27 19 -29 293 -43 115 -5 228 -13 285
-20 104 -12 122 -15 132 -21 7 -5 8 -2 3 6 -5 8 -4 11 2 7 13 -8 51 -14 143
-22 41 -4 77 -11 81 -16 6 -10 49 1 96 26 29 14 37 15 76 1 44 -15 100 -25
172 -31 22 -2 56 -7 75 -10 19 -3 53 -8 75 -10 46 -4 142 -15 200 -21 22 -3
54 -6 70 -8 184 -20 207 -23 215 -27 13 -6 46 -3 51 4 3 5 12 10 20 11 14 3
22 6 84 29 17 6 35 12 40 14 6 1 47 15 93 31 45 17 82 28 82 26 0 -2 10 2 23
9 12 8 76 31 142 53 66 21 123 43 126 47 3 5 10 8 15 8 12 -1 246 76 354 116
57 22 238 85 250 88 8 2 80 26 160 55 149 53 161 57 170 58 5 1 134 48 160 59
8 3 20 7 25 9 37 10 389 134 393 139 3 3 11 5 18 5 7 0 25 5 41 12 15 6 33 12
38 14 6 1 42 13 80 27 39 13 73 25 77 26 4 1 13 4 20 6 72 26 246 86 258 89
13 4 81 29 135 51 11 4 25 9 31 10 10 3 115 38 154 53 8 3 42 15 75 27 l59 21
1 2925 c0 1608 -1 2929 -3 2935 -4 13 -82 -5 -82 -19 0 -4 -4 -6 -9 -3 -5 4
-22 1 -38 -5 -15 -6 -38 -13 -50 -15 -12 -2 -53 -15 -92 -28 -38 -13 -72 -21
-75 -18 -4 3 -6 1 -6 -4 0 -5 -8 -10 -17 -11 -10 0 -32 -4 -49 -8 l-32 -7 0
668 c0 368 -1 679 -1 692 -1 18 -4 21 -18 13 -10 -5 -20 -9 -23 -9 -8 0 -121
-33 -185 -54 -33 -11 -67 -21 -75 -23 -8 -2 -55 -15 -105 -30 -143 -43 -130
-46 -132 25 -1 34 -3 63 -5 65 -3 3 -143 -51 -170 -66 -39 -20 -48 -12 -48 46
0 30 -3 55 -7 55 -10 0 -10 172 0 188 5 6 5 12 0 12 -10 0 -10 451 1 468 4 6
4 12 -1 12 -10 0 -10 451 1 468 4 6 3 12 -1 12 -5 0 -8 36 -7 80 1 44 0 80 -2
80 -5 0 -167 -50 -184 -57 -8 -3 -21 -8 -27 -10 -7 -1 -19 -5 -25 -6 -7 -2
-20 -6 -28 -9 -8 -3 -60 -20 -115 -37 -55 -17 -120 -38 -144 -46 -24 -8 -46
-13 -50 -11 -4 3 -8 32 -9 66 -1 34 -4 66 -7 70 -3 5 -51 -11 -107 -36 -55
-24 -106 -44 -113 -44 -7 0 -12 21 -14 57 -1 32 -3 59 -5 60 -5 5 -101 -32
-104 -39 -2 -5 -12 -8 -21 -8 -10 0 -21 -3 -25 -7 -13 -13 -47 -13 -45 -1 1 7
1 26 0 42 -1 23 -4 27 -18 21 -10 -4 -22 -8 -28 -9 -5 -1 -20 -8 -32 -14 -21
-12 -23 -11 -23 13 0 29 -2 30 -40 10 -17 -9 -32 -15 -35 -16 -2 0 -19 -6 -37
-14 -39 -16 -42 -14 -43 28 -2 36 -6 36 -73 6 -50 -23 -77 -19 -69 11 7 27 -8
25 -77 -5 -63 -28 -77 -26 -68 7 5 22 -3 22 -50 3 -16 -6 -18 1 -17 80 1 90
-5 109 -31 95z"/>
</g>
</svg>
